<svg width="1004" height="1007" viewBox="0 0 1004 1007" fill="none" xmlns="http://www.w3.org/2000/svg">
<path d="M583.24 438.341L611.84 378.501L635.953 432.748L640.159 431.07L611.84 367.596L582.96 428.274L551.556 370.113L521.275 426.876L486.506 369.833L454.262 425.478L420.055 368.155L387.53 425.478L352.762 369.553L314.068 428.274L283.226 365.359L243.691 431.07L247.617 433.307L282.945 374.866L313.508 437.502L352.762 377.942L387.81 434.426L420.055 377.103L454.262 434.426L486.506 378.781L521.555 436.104L551.556 379.899L583.24 438.341Z" fill="#212842"/>
<path d="M862.786 440.578L866.992 438.9L840.075 373.468L811.195 430.511L779.511 372.629L749.229 429.113L716.424 375.426L712.499 377.942L749.51 438.341L779.511 382.136L811.195 440.298L839.514 384.373L862.786 440.578Z" fill="#212842"/>
<path d="M778.957 673.505C903.127 549.674 903.127 348.904 778.957 225.072C654.787 101.241 453.469 101.241 329.299 225.072C205.13 348.903 205.13 549.674 329.299 673.505C453.469 797.336 654.788 797.336 778.957 673.505Z" fill="#C5C6EE"/>
<path opacity="0.49" d="M635.112 302.164C639.318 302.164 643.523 303.562 646.888 305.52C651.094 294.335 662.029 286.226 674.927 286.226C679.974 286.226 684.46 287.344 688.666 289.581C693.993 271.685 710.816 258.543 730.443 258.543C751.753 258.543 769.698 273.922 773.343 294.055C778.109 290.42 784.278 288.463 790.727 288.463C807.27 288.463 820.448 301.885 820.448 318.103C820.448 334.321 806.989 347.743 790.727 347.743C778.67 347.743 768.296 340.473 763.529 330.127C755.398 339.354 743.622 345.506 730.443 345.506C718.387 345.506 707.452 340.473 699.601 332.643C694.274 340.473 685.301 345.506 674.927 345.506C666.515 345.506 658.664 341.871 653.337 335.999C649.412 341.591 642.682 345.506 635.392 345.506C623.336 345.506 613.522 335.719 613.522 323.695C613.242 311.951 623.055 302.164 635.112 302.164Z" fill="#F0F7FF"/>
<path d="M519.873 218.557C513.424 218.277 507.535 219.955 502.489 223.031C496.6 206.253 480.899 193.67 462.113 193.111C454.823 192.832 447.813 194.509 441.645 197.585C434.354 170.741 410.241 150.608 381.081 149.769C349.397 148.931 322.48 170.741 316.031 200.661C309.021 195.348 300.049 191.713 290.516 191.433C266.122 190.594 245.654 209.889 245.093 234.216C244.532 258.543 263.599 278.955 287.992 279.515C305.937 280.074 321.639 269.728 329.209 254.628C340.705 268.889 357.809 278.117 377.436 278.676C395.381 279.235 411.643 272.524 423.98 261.06C431.551 272.804 444.729 280.913 459.87 281.192C472.487 281.472 483.983 276.439 492.395 268.33C498.002 276.998 507.536 282.87 518.471 283.15C536.135 283.709 551.276 269.728 551.837 251.832C551.556 233.936 537.537 219.116 519.873 218.557Z" fill="#F0F7FF"/>
<path d="M713.059 530.896C718.387 530.896 723.434 532.574 727.639 535.09C732.967 520.83 746.706 510.763 762.688 510.763C768.856 510.763 774.745 512.441 779.792 514.957C786.521 492.588 807.55 476.09 832.224 476.09C858.861 476.09 881.292 495.384 886.058 520.83C892.227 516.356 899.797 513.839 907.929 513.839C928.397 513.839 945.22 530.616 945.22 551.029C945.22 571.441 928.397 588.219 907.929 588.219C892.788 588.219 879.609 578.991 873.721 566.129C863.627 577.873 848.767 585.143 832.224 585.143C817.083 585.143 803.344 578.991 793.53 568.925C786.801 578.712 775.586 585.143 762.688 585.143C752.033 585.143 742.22 580.669 735.49 573.399C730.443 580.389 722.312 585.143 713.059 585.143C697.918 585.143 685.581 572.839 685.581 557.74C685.581 543.199 697.918 530.896 713.059 530.896Z" fill="#F0F7FF"/>
<path d="M545.107 562.214C542.584 562.214 540.341 563.053 538.378 564.171C535.855 557.74 529.686 552.986 522.396 552.986C519.592 552.986 516.788 553.825 514.545 554.944C511.461 544.598 501.928 537.327 490.712 537.327C478.656 537.327 468.281 546.275 466.319 557.74C463.515 555.783 460.15 554.384 456.505 554.384C447.252 554.384 439.401 561.934 439.401 571.441C439.401 580.669 446.972 588.498 456.505 588.498C463.515 588.498 469.403 584.304 471.926 578.432C476.413 583.745 483.422 587.1 490.712 587.1C497.722 587.1 503.891 584.304 508.377 579.83C511.461 584.304 516.508 587.1 522.396 587.1C527.163 587.1 531.649 585.143 534.733 581.788C536.976 585.143 540.621 587.1 545.107 587.1C551.837 587.1 557.725 581.508 557.725 574.517C557.725 567.806 551.837 562.214 545.107 562.214Z" fill="#F0F7FF"/>
<path d="M110.787 498.18C115.834 498.18 120.601 499.578 124.526 502.095C129.573 488.953 142.191 479.445 157.051 479.445C162.94 479.445 168.267 480.843 173.033 483.36C179.482 462.388 198.829 447.289 221.821 447.289C246.775 447.289 267.524 465.185 271.73 488.953C277.338 484.758 284.347 482.242 291.918 482.242C310.984 482.242 326.686 497.9 326.686 516.915C326.686 535.929 310.984 551.588 291.918 551.588C277.898 551.588 265.561 543.199 260.234 530.896C250.981 541.801 236.962 548.792 221.54 548.792C207.521 548.792 194.623 542.92 185.371 533.692C179.202 542.64 168.547 548.792 156.771 548.792C146.957 548.792 137.985 544.598 131.536 537.887C127.05 544.598 119.199 548.792 110.507 548.792C96.4877 548.792 84.9918 537.327 84.9918 523.346C85.2722 509.645 96.7681 498.18 110.787 498.18Z" fill="#F0F7FF"/>
<path d="M307.059 526.981C307.9 530.616 308.46 534.251 309.021 537.886C309.582 541.801 308.741 546.275 306.498 549.91C305.096 551.868 304.255 552.986 303.133 554.384L299.769 558.579C298.647 559.977 297.245 561.375 296.684 562.493C295.843 563.612 295.282 565.01 295.002 566.408C293.32 572.001 295.563 578.152 300.61 581.787C305.657 585.143 313.227 585.422 319.396 581.228C317.433 584.304 314.068 586.821 310.143 587.939C306.217 589.058 301.731 588.498 297.806 586.821C293.88 584.863 290.796 581.787 288.833 577.593C286.871 573.678 286.59 568.925 287.712 564.73C288.273 562.493 289.114 560.536 290.516 558.858C291.918 556.901 293.039 555.782 294.441 554.384L298.367 550.47C299.488 549.071 301.17 547.673 302.012 546.834C303.974 544.597 305.376 541.522 305.657 538.166C305.937 534.251 306.498 530.616 307.059 526.981Z" fill="#222625"/>
<path d="M271.449 433.028L297.806 504.052L317.994 503.773L345.472 434.426L271.449 433.028Z" stroke="#222625" stroke-width="1.0631" stroke-miterlimit="10"/>
<path d="M105.46 629.323L300.61 582.347L471.926 676.02" stroke="#E5E8FA" stroke-width="0.6671" stroke-miterlimit="10"/>
<path d="M17.9793 948.374L503.89 1002.9C510.9 1003.74 517.349 998.706 518.19 991.436L550.995 701.466C551.837 694.476 546.79 688.044 539.5 687.205L53.5885 632.679C46.5788 631.84 40.1299 636.873 39.2887 644.143L6.48338 934.113C5.92261 941.103 10.9696 947.535 17.9793 948.374Z" fill="#34346B"/>
<path d="M55.8316 631.84L537.537 685.807C545.668 686.646 551.556 694.196 550.715 702.305L548.752 718.523L37.0456 661.2L39.0083 644.982C40.1299 636.594 47.7003 630.721 55.8316 631.84Z" fill="#34346B"/>
<path d="M97.0486 652.252C96.7682 655.888 99.2916 659.243 102.937 659.523C106.582 659.802 109.946 657.286 110.227 653.651C110.507 650.015 107.984 646.66 104.339 646.38C100.974 645.821 97.6094 648.617 97.0486 652.252Z" fill="#34346B"/>
<path d="M76.0195 649.736C75.7391 653.371 78.2626 656.726 81.9076 657.006C85.5526 657.286 88.9173 654.769 89.1977 651.134C89.4781 647.499 86.9546 644.143 83.3095 643.864C79.9449 643.584 76.5803 646.101 76.0195 649.736Z" fill="#34346B"/>
<path d="M55.2708 647.499C54.9904 651.134 57.5139 654.49 61.1589 654.769C64.8039 655.049 68.1686 652.532 68.449 648.897C68.7294 645.262 66.2059 641.906 62.5608 641.627C58.9158 641.068 55.5511 643.864 55.2708 647.499Z" fill="#34346B"/>
<path d="M53.9379 763.167L34.8018 932.941L226.493 954.43L245.629 784.656L53.9379 763.167Z" fill="#34346B"/>
<path d="M74.6176 740.054L232.756 757.671C235.56 757.95 237.803 755.993 238.364 753.197C238.644 750.4 236.681 748.163 233.878 747.604L75.7391 729.988C72.9352 729.708 70.6921 731.666 70.1313 734.462C70.1313 737.258 72.0941 739.775 74.6176 740.054Z" fill="#34346B"/>
<path d="M77.141 719.083L235.279 736.699C238.083 736.978 240.326 735.021 240.887 732.225C241.168 729.429 239.205 727.192 236.401 726.632L78.2626 709.016C75.4587 708.736 73.2156 710.694 72.6548 713.49C72.3744 716.566 74.3372 718.803 77.141 719.083Z" fill="#34346B"/>
<path d="M281.263 743.13L408.559 757.391C411.923 757.67 414.727 755.433 415.008 752.078C415.288 748.722 413.045 745.926 409.68 745.647L282.384 731.386C279.02 731.106 276.216 733.343 275.936 736.699C275.655 739.775 277.898 742.571 281.263 743.13Z" fill="#34346B"/>
<path d="M358.65 776.126L405.755 781.438C409.12 781.718 411.924 779.481 412.204 776.126C412.484 772.77 410.241 769.974 406.877 769.694L359.771 764.381C356.407 764.102 353.603 766.339 353.323 769.694C353.042 772.77 355.285 775.566 358.65 776.126Z" fill="#34346B"/>
<path d="M220.139 889.093L54.9905 870.638" stroke="#34346B" stroke-width="0.7062" stroke-miterlimit="10" stroke-linecap="round"/>
<path d="M218.456 905.311L53.0277 886.577" stroke="#34346B" stroke-width="0.7062" stroke-miterlimit="10" stroke-linecap="round"/>
<path d="M216.493 921.25L51.3453 902.795" stroke="#34346B" stroke-width="0.7062" stroke-miterlimit="10" stroke-linecap="round"/>
<path d="M214.811 937.189L49.663 918.734" stroke="#34346B" stroke-width="0.7062" stroke-miterlimit="10" stroke-linecap="round"/>
<path d="M336.79 960.163C363.463 951.082 377.704 922.156 368.598 895.556C359.492 868.956 330.487 854.754 303.815 863.836C277.142 872.917 262.901 901.842 272.007 928.442C281.113 955.042 310.118 969.244 336.79 960.163Z" fill="#34346B"/>
<path d="M425.115 747.286L413.057 854.263L497.201 863.695L509.259 756.719L425.115 747.286Z" fill="#34346B"/>
<path opacity="0.55" d="M161.206 788.042L151.998 869.733L218.867 877.229L228.075 795.538L161.206 788.042Z" fill="#34346B"/>
<path opacity="0.55" d="M114.836 782.751L105.629 864.443L144.357 868.784L153.565 787.093L114.836 782.751Z" fill="#34346B"/>
<path opacity="0.55" d="M68.7368 777.594L59.5289 859.285L98.2572 863.627L107.465 781.936L68.7368 777.594Z" fill="#34346B"/>
<path d="M411.28 871.113L400.381 967.809L484.525 977.241L495.424 880.546L411.28 871.113Z" fill="#34346B"/>
<path d="M79.9449 690.281L506.694 738.097C509.218 738.376 511.741 736.419 512.022 733.902C512.302 731.386 510.339 728.869 507.816 728.59L81.0665 680.774C78.543 680.494 76.0195 682.452 75.7391 684.968C75.4587 687.485 77.4214 690.002 79.9449 690.281Z" fill="#34346B"/>
<path d="M267.96 788.388L262.416 837.57L396.433 852.593L401.977 803.412L267.96 788.388Z" fill="#34346B"/>
<path d="M307.9 890.771C307.058 898.601 312.666 905.871 320.517 906.71C328.368 907.549 335.658 901.956 336.499 894.127C337.34 886.297 331.733 879.027 323.882 878.188C316.031 877.07 309.021 882.942 307.9 890.771Z" fill="#34346B"/>
<path d="M347.995 943.061C349.958 926.004 337.621 910.904 320.517 908.947C303.414 906.989 288.273 919.293 286.31 936.35" fill="#34346B"/>
<path d="M330.92 948.963C357.594 939.886 371.832 910.965 362.722 884.366C353.612 857.768 324.603 843.564 297.929 852.641C271.255 861.718 257.016 890.639 266.126 917.237C275.237 943.836 304.246 958.04 330.92 948.963Z" fill="#FFFFFD"/>
<path d="M302.011 879.586C301.17 887.416 306.778 894.686 314.629 895.525C322.48 896.364 329.77 890.771 330.611 882.942C331.452 875.112 325.844 867.842 317.994 867.003C310.143 866.164 302.853 871.757 302.011 879.586Z" fill="#B48BA7"/>
<path d="M341.827 931.876C343.789 914.819 331.452 899.719 314.349 897.762C297.245 895.804 282.104 908.108 280.141 925.165" fill="#B48BA7"/>
<path d="M12.0913 937.189L498.003 991.715C505.012 992.554 511.461 987.521 512.302 980.251L545.108 690.281C545.949 683.291 540.902 676.859 533.612 676.02L47.7005 621.494C40.6908 620.655 34.2419 625.688 33.4007 632.959L0.595382 922.928C0.0346069 929.918 5.0816 936.35 12.0913 937.189Z" fill="#F9E4E4"/>
<path d="M49.9434 620.655L531.649 674.622C539.78 675.461 545.668 683.011 544.827 691.12L542.864 707.338L31.1575 650.015L33.1202 633.797C34.2417 625.409 41.5318 619.537 49.9434 620.655Z" fill="#B48BA7"/>
<path d="M91.1604 641.067C90.88 644.703 93.4035 648.058 97.0486 648.338C100.694 648.617 104.058 646.101 104.339 642.466C104.619 638.83 102.096 635.475 98.4505 635.195C94.8055 634.636 91.7212 637.432 91.1604 641.067Z" fill="#E2E9FC"/>
<path d="M70.1314 638.551C69.851 642.186 72.3745 645.541 76.0195 645.821C79.6645 646.101 83.0291 643.584 83.3095 639.949C83.5899 636.314 81.0665 632.958 77.4214 632.679C73.7764 632.399 70.6921 634.916 70.1314 638.551Z" fill="#313F5E"/>
<path d="M49.1023 636.314C48.8219 639.949 51.3454 643.305 54.9904 643.584C58.6355 643.864 62.0001 641.347 62.2805 637.712C62.5608 634.077 60.0374 630.722 56.3924 630.442C53.0277 629.883 49.6631 632.679 49.1023 636.314Z" fill="#C5C6EE"/>
<path d="M47.9804 752.201L28.8444 921.975L220.536 943.464L239.672 773.69L47.9804 752.201Z" fill="#FFD4D2"/>
<path d="M68.7294 728.869L226.868 746.485C229.672 746.765 231.915 744.808 232.476 742.012C232.756 739.215 230.793 736.978 227.989 736.419L69.8509 718.803C67.0471 718.523 64.804 720.481 64.2432 723.277C63.9628 726.073 65.9255 728.59 68.7294 728.869Z" fill="#C5C6EE"/>
<path d="M70.9725 707.898L229.111 725.514C231.915 725.793 234.158 723.836 234.719 721.04C234.999 718.244 233.036 716.007 230.233 715.447L72.094 697.831C69.2901 697.552 67.047 699.509 66.4863 702.305C66.4863 705.381 68.449 707.618 70.9725 707.898Z" fill="#B48BA7"/>
<path d="M275.375 731.945L402.671 746.206C406.035 746.485 408.839 744.248 409.12 740.893C409.4 737.538 407.157 734.741 403.792 734.462L276.496 720.201C273.132 719.921 270.328 722.158 270.047 725.514C269.767 728.59 272.01 731.386 275.375 731.945Z" fill="#C5C6EE"/>
<path d="M352.762 764.941L399.867 770.253C403.231 770.533 406.035 768.296 406.316 764.941C406.596 761.585 404.353 758.789 400.988 758.509L353.883 753.196C350.519 752.917 347.715 755.154 347.434 758.509C347.154 761.585 349.397 764.381 352.762 764.941Z" fill="#B48BA7"/>
<path d="M214.25 877.908L49.1023 859.453" stroke="#9492DC" stroke-width="0.7062" stroke-miterlimit="10" stroke-linecap="round"/>
<path d="M212.288 894.127L47.1395 875.392" stroke="#9492DC" stroke-width="0.7062" stroke-miterlimit="10" stroke-linecap="round"/>
<path d="M210.605 910.065L45.4572 891.61" stroke="#9492DC" stroke-width="0.7062" stroke-miterlimit="10" stroke-linecap="round"/>
<path d="M208.923 926.004L43.4945 907.549" stroke="#9492DC" stroke-width="0.7062" stroke-miterlimit="10" stroke-linecap="round"/>
<path d="M419.158 736.32L407.1 843.297L491.243 852.73L503.301 745.753L419.158 736.32Z" fill="#FFD4D2"/>
<path opacity="0.55" d="M155.28 776.798L146.072 858.489L212.941 865.985L222.149 784.294L155.28 776.798Z" fill="#FFFFFD"/>
<path opacity="0.55" d="M108.879 771.785L99.6713 853.477L138.4 857.818L147.607 776.127L108.879 771.785Z" fill="#FFFFFD"/>
<path opacity="0.55" d="M62.7796 766.628L53.5717 848.319L92.3 852.661L101.508 770.97L62.7796 766.628Z" fill="#FFFFFD"/>
<path d="M405.354 859.869L394.455 956.565L478.599 965.997L489.498 869.302L405.354 859.869Z" fill="#C5C6EE"/>
<path d="M74.0567 679.096L500.806 726.912C503.33 727.192 505.853 725.234 506.133 722.718C506.414 720.201 504.451 717.684 501.928 717.405L75.1783 669.589C72.6548 669.31 70.1313 671.267 69.8509 673.783C69.5705 676.3 71.2528 678.817 74.0567 679.096Z" fill="#B48BA7"/>
<path d="M262.034 777.144L256.49 826.326L390.507 841.349L396.05 792.168L262.034 777.144Z" fill="#FFD4D2"/>
<path opacity="0.37" d="M538.378 733.064C455.103 823.382 291.357 938.307 0.314862 926.843V927.402C-0.526299 934.392 4.80099 940.824 11.8107 941.663L498.002 992.554C505.012 993.393 511.461 988.08 512.302 981.09L538.378 733.064Z" fill="#FFD4D2"/>
<path d="M302.572 585.143C297.525 581.787 293.039 571.721 294.722 566.408C295.563 563.612 296.965 561.654 299.488 558.579L302.853 554.384C303.974 552.986 305.096 551.588 306.217 549.91C308.461 546.275 309.302 541.801 308.741 537.886C308.18 534.251 307.619 530.616 306.778 526.981C305.937 530.616 305.657 534.251 305.096 537.886C304.815 541.242 303.414 544.038 301.451 546.555L293.88 554.105C292.759 555.503 291.357 556.621 289.955 558.579C288.553 560.256 287.712 562.493 287.151 564.451C286.03 568.645 286.31 573.399 288.273 577.313C290.235 581.228 293.32 584.584 297.245 586.541L300.329 585.982L301.17 585.143H302.572Z" fill="#222625"/>
<path d="M296.124 536.488L318.555 535.929L321.919 502.654L291.918 502.934L296.124 536.488Z" fill="#B793AE"/>
<path d="M640.159 754.595H713.62C714.742 754.595 715.583 753.756 715.583 752.637C715.583 751.519 714.742 750.68 713.62 750.68H640.159C639.037 750.68 638.196 751.519 638.196 752.637C638.196 753.756 639.037 754.595 640.159 754.595Z" fill="#212842"/>
<path d="M742.22 985.004H608.475V1002.34H742.22V985.004Z" fill="#222625"/>
<path d="M640.159 524.744H713.62C714.742 524.744 715.583 523.905 715.583 522.787C715.583 521.668 714.742 520.83 713.62 520.83H640.159C639.037 520.83 638.196 521.668 638.196 522.787C638.196 523.905 639.037 524.744 640.159 524.744Z" fill="#212842"/>
<path d="M640.159 599.124H713.62C714.742 599.124 715.583 598.285 715.583 597.167C715.583 596.048 714.742 595.209 713.62 595.209H640.159C639.037 595.209 638.196 596.048 638.196 597.167C638.196 598.285 639.037 599.124 640.159 599.124Z" fill="#212842"/>
<path d="M640.159 674.622H713.62C714.742 674.622 715.583 673.784 715.583 672.665C715.583 671.547 714.742 670.708 713.62 670.708H640.159C639.037 670.708 638.196 671.547 638.196 672.665C638.196 673.784 639.037 674.622 640.159 674.622Z" fill="#212842"/>
<path d="M640.159 827.297H713.62C714.742 827.297 715.583 826.458 715.583 825.339C715.583 824.221 714.742 823.382 713.62 823.382H640.159C639.037 823.382 638.196 824.221 638.196 825.339C638.196 826.458 639.037 827.297 640.159 827.297Z" fill="#212842"/>
<path d="M640.159 906.15H713.62C714.742 906.15 715.583 905.311 715.583 904.193C715.583 903.074 714.742 902.236 713.62 902.236H640.159C639.037 902.236 638.196 903.074 638.196 904.193C638.196 905.311 639.037 906.15 640.159 906.15Z" fill="#212842"/>
<path d="M630.626 998.426V325.093C630.626 323.695 631.186 322.017 632.028 320.899L707.452 211.287C709.415 208.49 712.779 207.372 715.863 208.49C718.948 209.329 721.191 212.405 721.191 215.481V998.706C721.191 1002.9 717.826 1006.26 713.62 1006.26H638.196C633.99 1005.98 630.626 1002.62 630.626 998.426ZM706.33 239.529L645.767 327.33V991.156H706.33V239.529Z" fill="#212842"/>
<path d="M865.31 377.662L868.674 374.866L715.583 217.718L711.938 220.514L865.31 377.662Z" fill="#222625"/>
<path d="M712.734 217.204L282.252 371.879L283.774 376.088L714.256 221.412L712.734 217.204Z" fill="#222625"/>
<path d="M674.086 945.018L637.635 903.634L674.366 864.766L637.635 825.06L674.366 789.268L637.635 752.637L673.805 712.931L637.074 673.224L674.927 634.357L639.878 596.887L674.366 560.256L637.635 523.346L674.086 484.199L637.635 443.653L674.366 408.141L637.355 371.79L672.123 347.743L636.794 325.093L637.355 324.814C637.075 324.534 636.794 323.975 636.794 323.415C636.794 322.297 637.635 321.738 638.757 321.458H642.682L711.097 280.633L687.544 257.145C686.703 256.306 686.703 255.187 687.544 254.628C688.385 253.789 689.507 253.789 690.068 254.628L717.265 281.472L650.253 321.738L716.705 322.017L679.413 347.743L717.546 372.35L680.534 408.421L717.265 444.492L679.974 484.758L715.022 523.905L680.254 560.816L717.265 598.006L680.815 635.195L716.424 673.224L678.572 712.931L716.144 753.476L679.413 789.268L716.144 825.898L679.413 864.766L716.144 904.193L679.133 945.018L715.863 986.962H635.953L674.086 945.018ZM676.609 947.814L644.365 983.047H707.732L676.609 947.814ZM676.889 867.283L642.682 903.354L676.609 941.942L711.097 903.913L676.889 867.283ZM676.889 791.784L642.682 825.06L676.889 861.97L711.097 825.898L676.889 791.784ZM676.048 715.727L642.682 752.637L676.889 786.751L711.097 753.476L676.048 715.727ZM677.45 637.153L642.121 673.224L676.329 710.134L710.536 672.385L677.45 637.153ZM676.889 562.773L644.925 596.887L677.45 631.84L711.097 597.446L676.889 562.773ZM676.329 486.715L642.682 523.066L676.609 557.46L708.854 523.066L676.329 486.715ZM676.889 410.378L642.682 443.653L676.329 481.403L710.816 444.213L676.889 410.378ZM675.207 349.7L642.963 372.07L676.889 405.345L710.536 372.629L675.207 349.7ZM644.084 325.093L675.207 345.226L704.087 325.373L644.084 325.093Z" fill="#212842"/>
<path d="M867.272 381.298C871.198 381.018 874.282 377.942 874.282 374.027C874.282 369.833 870.917 366.478 866.992 366.478L163.781 360.326C159.575 360.326 156.21 363.681 156.21 367.596C156.21 371.79 159.575 375.146 163.5 375.146L866.712 381.298C866.712 381.298 866.992 381.298 867.272 381.298Z" fill="#212842"/>
<path d="M866.329 445.872C870.065 445.584 873 442.419 873 438.39C873 434.073 869.798 430.619 866.062 430.619L163.205 424C159.202 424 156 427.453 156 431.483C156 435.799 159.202 439.253 162.938 439.253L869.264 445.872C869.531 446.16 866.329 445.872 866.329 445.872Z" fill="#212842"/>
<path d="M583.24 438.341L611.84 378.501L635.953 432.748L640.159 431.07L611.84 367.596L582.96 428.274L551.556 370.113L521.274 426.876L486.506 369.833L454.262 425.478L420.055 368.155L387.53 425.478L352.762 369.553L314.068 428.274L283.226 365.359L243.691 431.07L247.616 433.307L282.945 374.866L313.507 437.502L352.762 377.942L387.81 434.426L420.055 377.103L454.262 434.426L486.506 378.781L521.555 436.104L551.556 379.899L583.24 438.341Z" fill="#212842"/>
<path d="M162.379 374.307L182.567 430.791L214.811 373.468L248.738 430.791L281.263 375.146L312.666 432.189L312.386 422.961L282.665 365.918L248.738 421.843L214.811 364.241L182.286 421.843L162.379 365.639" fill="#212842"/>
<path d="M862.786 440.578L866.992 438.9L840.075 373.468L811.195 430.511L779.511 372.629L749.229 429.113L716.424 375.426L712.499 377.942L749.51 438.341L779.511 382.136L811.195 440.298L839.514 384.373L862.786 440.578Z" fill="#212842"/>
</svg>
